<mxfile host="65bd71144e">
    <diagram id="5o81-kmXDzTtyveauIpv" name="Page-1">
        <mxGraphModel dx="2258" dy="1325" grid="1" gridSize="10" guides="1" tooltips="1" connect="1" arrows="1" fold="1" page="1" pageScale="1" pageWidth="850" pageHeight="1100" math="0" shadow="0">
            <root>
                <mxCell id="0"/>
                <mxCell id="1" parent="0"/>
                <mxCell id="2" value="&lt;b&gt;&lt;font style=&quot;font-size: 15px;&quot;&gt;call/message Flow&lt;/font&gt;&lt;/b&gt;&lt;div&gt;&lt;b&gt;&lt;font style=&quot;font-size: 15px;&quot;&gt;Activate The GIft Card&lt;/font&gt;&lt;/b&gt;&lt;/div&gt;" style="text;html=1;whiteSpace=wrap;overflow=hidden;rounded=0;align=center;" vertex="1" parent="1">
                    <mxGeometry x="820" y="60" width="190" height="50" as="geometry"/>
                </mxCell>
                <mxCell id="3" value="" style="endArrow=none;html=1;rounded=0;strokeColor=default;strokeWidth=3;" edge="1" parent="1" source="37">
                    <mxGeometry width="50" height="50" relative="1" as="geometry">
                        <mxPoint x="450" y="260" as="sourcePoint"/>
                        <mxPoint x="500" y="210" as="targetPoint"/>
                    </mxGeometry>
                </mxCell>
                <mxCell id="4" value="" style="endArrow=none;html=1;rounded=0;strokeColor=default;strokeWidth=3;" edge="1" parent="1" source="38">
                    <mxGeometry width="50" height="50" relative="1" as="geometry">
                        <mxPoint x="709.5" y="900" as="sourcePoint"/>
                        <mxPoint x="709.5" y="210" as="targetPoint"/>
                    </mxGeometry>
                </mxCell>
                <mxCell id="5" value="" style="endArrow=none;html=1;rounded=0;strokeColor=default;strokeWidth=3;exitX=0.583;exitY=0.167;exitDx=0;exitDy=0;exitPerimeter=0;" edge="1" parent="1" source="41">
                    <mxGeometry width="50" height="50" relative="1" as="geometry">
                        <mxPoint x="1360" y="900" as="sourcePoint"/>
                        <mxPoint x="1360" y="210" as="targetPoint"/>
                    </mxGeometry>
                </mxCell>
                <mxCell id="6" value="" style="endArrow=none;html=1;rounded=0;strokeColor=default;strokeWidth=3;" edge="1" parent="1" source="40">
                    <mxGeometry width="50" height="50" relative="1" as="geometry">
                        <mxPoint x="1129.5" y="900" as="sourcePoint"/>
                        <mxPoint x="1129.5" y="210" as="targetPoint"/>
                    </mxGeometry>
                </mxCell>
                <mxCell id="7" value="" style="endArrow=none;html=1;rounded=0;strokeColor=default;strokeWidth=3;" edge="1" parent="1" source="39">
                    <mxGeometry width="50" height="50" relative="1" as="geometry">
                        <mxPoint x="909.5" y="900" as="sourcePoint"/>
                        <mxPoint x="909.5" y="210" as="targetPoint"/>
                    </mxGeometry>
                </mxCell>
                <mxCell id="8" value="User" style="rounded=1;whiteSpace=wrap;html=1;fontSize=13;fontStyle=1;strokeWidth=3;" vertex="1" parent="1">
                    <mxGeometry x="440" y="150" width="120" height="60" as="geometry"/>
                </mxCell>
                <mxCell id="9" value="API GATEWAY" style="rounded=1;whiteSpace=wrap;html=1;fontSize=13;fontStyle=1;strokeWidth=3;" vertex="1" parent="1">
                    <mxGeometry x="650" y="150" width="120" height="60" as="geometry"/>
                </mxCell>
                <mxCell id="10" value="Wallet Manager&amp;nbsp;" style="rounded=1;whiteSpace=wrap;html=1;fontSize=13;fontStyle=1;strokeWidth=3;" vertex="1" parent="1">
                    <mxGeometry x="1070" y="150" width="120" height="60" as="geometry"/>
                </mxCell>
                <mxCell id="11" value="Gift Card Manager" style="rounded=1;whiteSpace=wrap;html=1;fontSize=13;fontStyle=1;strokeWidth=3;" vertex="1" parent="1">
                    <mxGeometry x="1290" y="150" width="120" height="60" as="geometry"/>
                </mxCell>
                <mxCell id="12" value="Profile Manager" style="rounded=1;whiteSpace=wrap;html=1;fontSize=13;fontStyle=1;strokeWidth=3;" vertex="1" parent="1">
                    <mxGeometry x="850" y="150" width="120" height="60" as="geometry"/>
                </mxCell>
                <mxCell id="13" value="" style="shape=flexArrow;endArrow=classic;html=1;rounded=0;strokeWidth=2;fillColor=#000000;" edge="1" parent="1">
                    <mxGeometry width="50" height="50" relative="1" as="geometry">
                        <mxPoint x="500" y="270" as="sourcePoint"/>
                        <mxPoint x="710" y="270" as="targetPoint"/>
                    </mxGeometry>
                </mxCell>
                <mxCell id="14" value="" style="shape=flexArrow;endArrow=classic;html=1;rounded=0;strokeWidth=2;fillColor=#000000;" edge="1" parent="1">
                    <mxGeometry width="50" height="50" relative="1" as="geometry">
                        <mxPoint x="710" y="300" as="sourcePoint"/>
                        <mxPoint x="910" y="300" as="targetPoint"/>
                    </mxGeometry>
                </mxCell>
                <mxCell id="15" value="" style="shape=flexArrow;endArrow=classic;html=1;rounded=0;strokeWidth=2;fillColor=#000000;" edge="1" parent="1">
                    <mxGeometry width="50" height="50" relative="1" as="geometry">
                        <mxPoint x="910" y="370" as="sourcePoint"/>
                        <mxPoint x="710" y="370" as="targetPoint"/>
                    </mxGeometry>
                </mxCell>
                <mxCell id="16" value="" style="shape=flexArrow;endArrow=classic;html=1;rounded=0;strokeWidth=2;fillColor=#000000;" edge="1" parent="1">
                    <mxGeometry width="50" height="50" relative="1" as="geometry">
                        <mxPoint x="710" y="390" as="sourcePoint"/>
                        <mxPoint x="500" y="390" as="targetPoint"/>
                    </mxGeometry>
                </mxCell>
                <mxCell id="17" value="&lt;b&gt;&lt;font style=&quot;font-size: 14px;&quot;&gt;1&lt;/font&gt;&lt;/b&gt;" style="ellipse;whiteSpace=wrap;html=1;aspect=fixed;fillColor=none;strokeWidth=2;" vertex="1" parent="1">
                    <mxGeometry x="590" y="220" width="40" height="40" as="geometry"/>
                </mxCell>
                <mxCell id="18" value="&lt;b&gt;&lt;font style=&quot;font-size: 14px;&quot;&gt;4&lt;/font&gt;&lt;/b&gt;" style="ellipse;whiteSpace=wrap;html=1;aspect=fixed;fillColor=none;strokeWidth=2;" vertex="1" parent="1">
                    <mxGeometry x="600" y="340" width="40" height="40" as="geometry"/>
                </mxCell>
                <mxCell id="19" value="&lt;b&gt;&lt;font style=&quot;font-size: 14px;&quot;&gt;3&lt;/font&gt;&lt;/b&gt;" style="ellipse;whiteSpace=wrap;html=1;aspect=fixed;fillColor=none;strokeWidth=2;" vertex="1" parent="1">
                    <mxGeometry x="790" y="320" width="40" height="40" as="geometry"/>
                </mxCell>
                <mxCell id="20" value="&lt;b&gt;&lt;font style=&quot;font-size: 14px;&quot;&gt;2&lt;/font&gt;&lt;/b&gt;" style="ellipse;whiteSpace=wrap;html=1;aspect=fixed;fillColor=none;strokeWidth=2;" vertex="1" parent="1">
                    <mxGeometry x="790" y="250" width="40" height="40" as="geometry"/>
                </mxCell>
                <mxCell id="21" value="" style="shape=flexArrow;endArrow=classic;html=1;rounded=0;strokeWidth=2;fillColor=#000000;" edge="1" parent="1">
                    <mxGeometry width="50" height="50" relative="1" as="geometry">
                        <mxPoint x="500" y="470" as="sourcePoint"/>
                        <mxPoint x="710" y="470" as="targetPoint"/>
                    </mxGeometry>
                </mxCell>
                <mxCell id="22" value="" style="shape=flexArrow;endArrow=classic;html=1;rounded=0;strokeWidth=2;fillColor=#000000;" edge="1" parent="1">
                    <mxGeometry width="50" height="50" relative="1" as="geometry">
                        <mxPoint x="710" y="500" as="sourcePoint"/>
                        <mxPoint x="910" y="500" as="targetPoint"/>
                    </mxGeometry>
                </mxCell>
                <mxCell id="23" value="" style="shape=flexArrow;endArrow=classic;html=1;rounded=0;strokeWidth=2;fillColor=#000000;" edge="1" parent="1">
                    <mxGeometry width="50" height="50" relative="1" as="geometry">
                        <mxPoint x="910" y="580" as="sourcePoint"/>
                        <mxPoint x="710" y="580" as="targetPoint"/>
                    </mxGeometry>
                </mxCell>
                <mxCell id="24" value="&lt;b&gt;&lt;font style=&quot;font-size: 14px;&quot;&gt;5&lt;/font&gt;&lt;/b&gt;" style="ellipse;whiteSpace=wrap;html=1;aspect=fixed;fillColor=none;strokeWidth=2;" vertex="1" parent="1">
                    <mxGeometry x="590" y="420" width="40" height="40" as="geometry"/>
                </mxCell>
                <mxCell id="25" value="&lt;b&gt;&lt;font style=&quot;font-size: 14px;&quot;&gt;6&lt;/font&gt;&lt;/b&gt;" style="ellipse;whiteSpace=wrap;html=1;aspect=fixed;fillColor=none;strokeWidth=2;" vertex="1" parent="1">
                    <mxGeometry x="790" y="450" width="40" height="40" as="geometry"/>
                </mxCell>
                <mxCell id="26" value="&lt;b&gt;&lt;font style=&quot;font-size: 14px;&quot;&gt;7&lt;/font&gt;&lt;/b&gt;" style="ellipse;whiteSpace=wrap;html=1;aspect=fixed;fillColor=none;strokeWidth=2;" vertex="1" parent="1">
                    <mxGeometry x="790" y="530" width="40" height="40" as="geometry"/>
                </mxCell>
                <mxCell id="27" value="" style="shape=flexArrow;endArrow=classic;html=1;rounded=0;strokeWidth=2;fillColor=#000000;" edge="1" parent="1">
                    <mxGeometry width="50" height="50" relative="1" as="geometry">
                        <mxPoint x="710" y="670" as="sourcePoint"/>
                        <mxPoint x="1130" y="670" as="targetPoint"/>
                    </mxGeometry>
                </mxCell>
                <mxCell id="28" value="" style="shape=flexArrow;endArrow=classic;html=1;rounded=0;strokeWidth=2;fillColor=#000000;" edge="1" parent="1">
                    <mxGeometry width="50" height="50" relative="1" as="geometry">
                        <mxPoint x="1130" y="740" as="sourcePoint"/>
                        <mxPoint x="710" y="740" as="targetPoint"/>
                    </mxGeometry>
                </mxCell>
                <mxCell id="29" value="&lt;b&gt;&lt;font style=&quot;font-size: 14px;&quot;&gt;8&lt;/font&gt;&lt;/b&gt;" style="ellipse;whiteSpace=wrap;html=1;aspect=fixed;fillColor=none;strokeWidth=2;" vertex="1" parent="1">
                    <mxGeometry x="790" y="620" width="40" height="40" as="geometry"/>
                </mxCell>
                <mxCell id="30" value="&lt;b&gt;&lt;font style=&quot;font-size: 14px;&quot;&gt;9&lt;/font&gt;&lt;/b&gt;" style="ellipse;whiteSpace=wrap;html=1;aspect=fixed;fillColor=none;strokeWidth=2;" vertex="1" parent="1">
                    <mxGeometry x="790" y="690" width="40" height="40" as="geometry"/>
                </mxCell>
                <mxCell id="31" value="" style="shape=flexArrow;endArrow=classic;html=1;rounded=0;strokeWidth=2;fillColor=#000000;" edge="1" parent="1">
                    <mxGeometry width="50" height="50" relative="1" as="geometry">
                        <mxPoint x="710" y="820" as="sourcePoint"/>
                        <mxPoint x="1360" y="820" as="targetPoint"/>
                    </mxGeometry>
                </mxCell>
                <mxCell id="32" value="&lt;b&gt;&lt;font style=&quot;font-size: 14px;&quot;&gt;10&lt;/font&gt;&lt;/b&gt;" style="ellipse;whiteSpace=wrap;html=1;aspect=fixed;fillColor=none;strokeWidth=2;" vertex="1" parent="1">
                    <mxGeometry x="790" y="770" width="40" height="40" as="geometry"/>
                </mxCell>
                <mxCell id="33" value="" style="shape=flexArrow;endArrow=classic;html=1;rounded=0;strokeWidth=2;fillColor=#000000;" edge="1" parent="1">
                    <mxGeometry width="50" height="50" relative="1" as="geometry">
                        <mxPoint x="1360" y="890" as="sourcePoint"/>
                        <mxPoint x="710" y="890" as="targetPoint"/>
                    </mxGeometry>
                </mxCell>
                <mxCell id="34" value="&lt;b&gt;&lt;font style=&quot;font-size: 14px;&quot;&gt;11&lt;/font&gt;&lt;/b&gt;" style="ellipse;whiteSpace=wrap;html=1;aspect=fixed;fillColor=none;strokeWidth=2;" vertex="1" parent="1">
                    <mxGeometry x="790" y="840" width="40" height="40" as="geometry"/>
                </mxCell>
                <mxCell id="35" value="" style="shape=flexArrow;endArrow=classic;html=1;rounded=0;strokeWidth=2;fillColor=#000000;" edge="1" parent="1">
                    <mxGeometry width="50" height="50" relative="1" as="geometry">
                        <mxPoint x="710" y="980" as="sourcePoint"/>
                        <mxPoint x="1130" y="980" as="targetPoint"/>
                    </mxGeometry>
                </mxCell>
                <mxCell id="36" value="" style="group" vertex="1" connectable="0" parent="1">
                    <mxGeometry x="440" y="1180" width="970" height="60" as="geometry"/>
                </mxCell>
                <mxCell id="37" value="User" style="rounded=1;whiteSpace=wrap;html=1;fontSize=13;fontStyle=1;strokeWidth=3;" vertex="1" parent="36">
                    <mxGeometry width="120" height="60" as="geometry"/>
                </mxCell>
                <mxCell id="38" value="API GATEWAY" style="rounded=1;whiteSpace=wrap;html=1;fontSize=13;fontStyle=1;strokeWidth=3;" vertex="1" parent="36">
                    <mxGeometry x="210" width="120" height="60" as="geometry"/>
                </mxCell>
                <mxCell id="39" value="Profile Manager" style="rounded=1;whiteSpace=wrap;html=1;fontSize=13;fontStyle=1;strokeWidth=3;" vertex="1" parent="36">
                    <mxGeometry x="410" width="120" height="60" as="geometry"/>
                </mxCell>
                <mxCell id="40" value="Wallet Manager&amp;nbsp;" style="rounded=1;whiteSpace=wrap;html=1;fontSize=13;fontStyle=1;strokeWidth=3;" vertex="1" parent="36">
                    <mxGeometry x="630" width="120" height="60" as="geometry"/>
                </mxCell>
                <mxCell id="41" value="Gift Card Manager" style="rounded=1;whiteSpace=wrap;html=1;fontSize=13;fontStyle=1;strokeWidth=3;" vertex="1" parent="36">
                    <mxGeometry x="850" width="120" height="60" as="geometry"/>
                </mxCell>
                <mxCell id="42" value="" style="shape=flexArrow;endArrow=classic;html=1;rounded=0;strokeWidth=2;fillColor=#000000;" edge="1" parent="1">
                    <mxGeometry width="50" height="50" relative="1" as="geometry">
                        <mxPoint x="1132" y="1050" as="sourcePoint"/>
                        <mxPoint x="712" y="1050" as="targetPoint"/>
                    </mxGeometry>
                </mxCell>
                <mxCell id="43" value="" style="shape=flexArrow;endArrow=classic;html=1;rounded=0;strokeWidth=2;fillColor=#000000;" edge="1" parent="1">
                    <mxGeometry width="50" height="50" relative="1" as="geometry">
                        <mxPoint x="710" y="1099" as="sourcePoint"/>
                        <mxPoint x="500" y="1099" as="targetPoint"/>
                    </mxGeometry>
                </mxCell>
                <mxCell id="44" value="&lt;b&gt;&lt;font style=&quot;font-size: 14px;&quot;&gt;12&lt;/font&gt;&lt;/b&gt;" style="ellipse;whiteSpace=wrap;html=1;aspect=fixed;fillColor=none;strokeWidth=2;" vertex="1" parent="1">
                    <mxGeometry x="790" y="930" width="40" height="40" as="geometry"/>
                </mxCell>
                <mxCell id="45" value="&lt;b&gt;&lt;font style=&quot;font-size: 14px;&quot;&gt;13&lt;/font&gt;&lt;/b&gt;" style="ellipse;whiteSpace=wrap;html=1;aspect=fixed;fillColor=none;strokeWidth=2;" vertex="1" parent="1">
                    <mxGeometry x="790" y="1000" width="40" height="40" as="geometry"/>
                </mxCell>
                <mxCell id="46" value="&lt;b&gt;&lt;font style=&quot;font-size: 14px;&quot;&gt;14&lt;/font&gt;&lt;/b&gt;" style="ellipse;whiteSpace=wrap;html=1;aspect=fixed;fillColor=none;strokeWidth=2;" vertex="1" parent="1">
                    <mxGeometry x="580" y="1050" width="40" height="40" as="geometry"/>
                </mxCell>
                <mxCell id="47" value="&lt;div style=&quot;line-height: 170%;&quot;&gt;&lt;p data-end=&quot;60&quot; data-start=&quot;34&quot;&gt;&lt;b style=&quot;background-color: transparent; color: light-dark(rgb(0, 0, 0), rgb(255, 255, 255));&quot;&gt;&lt;font style=&quot;font-size: 21px; line-height: 170%;&quot;&gt;In the above Diagram&lt;/font&gt;&lt;/b&gt;&lt;/p&gt;&lt;p data-end=&quot;60&quot; data-start=&quot;34&quot;&gt;&lt;b style=&quot;background-color: transparent; color: light-dark(rgb(0, 0, 0), rgb(255, 255, 255));&quot;&gt;&lt;font style=&quot;font-size: 21px;&quot;&gt;&lt;br&gt;&lt;/font&gt;&lt;/b&gt;&lt;/p&gt;&lt;p data-end=&quot;60&quot; data-start=&quot;34&quot;&gt;&lt;font style=&quot;font-size: 21px; line-height: 170%;&quot;&gt;&lt;b style=&quot;background-color: transparent; color: light-dark(rgb(0, 0, 0), rgb(255, 255, 255));&quot;&gt;1)&lt;/b&gt;&lt;b style=&quot;background-color: transparent; color: light-dark(rgb(0, 0, 0), rgb(255, 255, 255));&quot;&gt;User provides a username and password to the API Gateway.&lt;/b&gt;&lt;/font&gt;&lt;/p&gt;&lt;p data-end=&quot;60&quot; data-start=&quot;34&quot;&gt;&lt;b style=&quot;background-color: transparent; color: light-dark(rgb(0, 0, 0), rgb(255, 255, 255));&quot;&gt;&lt;font style=&quot;font-size: 21px; line-height: 170%;&quot;&gt;2)API Gateway forwards the credentials to the Profile Manager.&lt;/font&gt;&lt;/b&gt;&lt;/p&gt;&lt;p data-end=&quot;60&quot; data-start=&quot;34&quot;&gt;&lt;font style=&quot;font-size: 21px; line-height: 170%;&quot;&gt;&lt;b style=&quot;background-color: transparent; color: light-dark(rgb(0, 0, 0), rgb(255, 255, 255));&quot;&gt;3)&lt;/b&gt;&lt;b style=&quot;background-color: transparent; color: light-dark(rgb(0, 0, 0), rgb(255, 255, 255));&quot;&gt;If the user is valid, Profile Manager generates a JWT token and sends it back to the API Gateway.&lt;/b&gt;&lt;/font&gt;&lt;/p&gt;&lt;p data-end=&quot;60&quot; data-start=&quot;34&quot;&gt;&lt;font style=&quot;font-size: 21px; line-height: 170%;&quot;&gt;&lt;b style=&quot;background-color: transparent; color: light-dark(rgb(0, 0, 0), rgb(255, 255, 255));&quot;&gt;4)&lt;/b&gt;&lt;b style=&quot;background-color: transparent; color: light-dark(rgb(0, 0, 0), rgb(255, 255, 255));&quot;&gt;API Gateway returns the JWT token to the user.&lt;/b&gt;&lt;/font&gt;&lt;/p&gt;&lt;p data-end=&quot;60&quot; data-start=&quot;34&quot;&gt;&lt;b style=&quot;background-color: transparent; color: light-dark(rgb(0, 0, 0), rgb(255, 255, 255));&quot;&gt;&lt;font style=&quot;font-size: 21px; line-height: 170%;&quot;&gt;5)User sends a request to API Gateway, including the token in the header and the gift card ID in the request body.&lt;/font&gt;&lt;/b&gt;&lt;/p&gt;&lt;p data-end=&quot;60&quot; data-start=&quot;34&quot;&gt;&lt;font style=&quot;font-size: 21px; line-height: 170%;&quot;&gt;&lt;b style=&quot;background-color: transparent; color: light-dark(rgb(0, 0, 0), rgb(255, 255, 255));&quot;&gt;6)&lt;/b&gt;&lt;b style=&quot;background-color: transparent; color: light-dark(rgb(0, 0, 0), rgb(255, 255, 255));&quot;&gt;API Gateway forwards the request to Profile Manager to validate the token.&lt;/b&gt;&lt;/font&gt;&lt;/p&gt;&lt;p data-end=&quot;60&quot; data-start=&quot;34&quot;&gt;&lt;font style=&quot;font-size: 21px; line-height: 170%;&quot;&gt;&lt;b style=&quot;background-color: transparent; color: light-dark(rgb(0, 0, 0), rgb(255, 255, 255));&quot;&gt;7)&lt;/b&gt;&lt;b style=&quot;background-color: transparent; color: light-dark(rgb(0, 0, 0), rgb(255, 255, 255));&quot;&gt;Profile Manager verifies the token and responds with the user ID&lt;/b&gt;&lt;/font&gt;&lt;/p&gt;&lt;p data-end=&quot;60&quot; data-start=&quot;34&quot;&gt;&lt;font style=&quot;font-size: 21px; line-height: 170%;&quot;&gt;&lt;b style=&quot;background-color: transparent; color: light-dark(rgb(0, 0, 0), rgb(255, 255, 255));&quot;&gt;8)&lt;/b&gt;&lt;b style=&quot;background-color: transparent; color: light-dark(rgb(0, 0, 0), rgb(255, 255, 255));&quot;&gt;API Gateway requests Wallet Manager to retrieve the wallet ID for the user.&lt;/b&gt;&lt;/font&gt;&lt;/p&gt;&lt;p data-end=&quot;60&quot; data-start=&quot;34&quot;&gt;&lt;b style=&quot;background-color: transparent; color: light-dark(rgb(0, 0, 0), rgb(255, 255, 255));&quot;&gt;&lt;font style=&quot;font-size: 21px; line-height: 170%;&quot;&gt;9)Wallet Manager receives the user ID and returns the corresponding wallet ID.&lt;/font&gt;&lt;/b&gt;&lt;/p&gt;&lt;p data-end=&quot;60&quot; data-start=&quot;34&quot;&gt;&lt;font style=&quot;font-size: 21px; line-height: 170%;&quot;&gt;&lt;b style=&quot;background-color: transparent; color: light-dark(rgb(0, 0, 0), rgb(255, 255, 255));&quot;&gt;10)&lt;/b&gt;&lt;b style=&quot;background-color: transparent; color: light-dark(rgb(0, 0, 0), rgb(255, 255, 255));&quot;&gt;API Gateway sends a request to the Gift Card Manager to link the gift card ID to the retrieved wallet ID.&lt;/b&gt;&lt;/font&gt;&lt;/p&gt;&lt;p data-end=&quot;60&quot; data-start=&quot;34&quot;&gt;&lt;b style=&quot;background-color: transparent; color: light-dark(rgb(0, 0, 0), rgb(255, 255, 255));&quot;&gt;&lt;font style=&quot;font-size: 21px; line-height: 170%;&quot;&gt;11)Gift Card Manager confirms the association and specifies the amount to be credited to the wallet.&lt;/font&gt;&lt;/b&gt;&lt;/p&gt;&lt;p data-end=&quot;60&quot; data-start=&quot;34&quot;&gt;&lt;font style=&quot;font-size: 21px; line-height: 170%;&quot;&gt;&lt;b style=&quot;background-color: transparent; color: light-dark(rgb(0, 0, 0), rgb(255, 255, 255));&quot;&gt;12)&amp;nbsp;&lt;/b&gt;&lt;b style=&quot;background-color: transparent; color: light-dark(rgb(0, 0, 0), rgb(255, 255, 255));&quot;&gt;API Gateway instructs Wallet Manager to credit the specified amount (e.g., 100,000 Toman) to the wallet.&lt;/b&gt;&lt;/font&gt;&lt;/p&gt;&lt;p data-end=&quot;60&quot; data-start=&quot;34&quot;&gt;&lt;font style=&quot;font-size: 21px; line-height: 170%;&quot;&gt;&lt;b style=&quot;background-color: transparent; color: light-dark(rgb(0, 0, 0), rgb(255, 255, 255));&quot;&gt;13)&amp;nbsp;&lt;/b&gt;&lt;b style=&quot;background-color: transparent; color: light-dark(rgb(0, 0, 0), rgb(255, 255, 255));&quot;&gt;Wallet Manager confirms that the wallet has been successfully credited.&lt;/b&gt;&lt;/font&gt;&lt;/p&gt;&lt;p data-end=&quot;60&quot; data-start=&quot;34&quot;&gt;&lt;b style=&quot;background-color: transparent; color: light-dark(rgb(0, 0, 0), rgb(255, 255, 255));&quot;&gt;&lt;font style=&quot;font-size: 21px; line-height: 170%;&quot;&gt;14)API Gateway sends a response to the user confirming the new wallet balance.&lt;/font&gt;&lt;/b&gt;&lt;/p&gt;&lt;/div&gt;" style="text;html=1;align=left;verticalAlign=middle;whiteSpace=wrap;rounded=0;" vertex="1" parent="1">
                    <mxGeometry x="440" y="1640" width="940" height="260" as="geometry"/>
                </mxCell>
            </root>
        </mxGraphModel>
    </diagram>
</mxfile>